<svg width="360" height="220" viewBox="0 0 360 220" fill="none" xmlns="http://www.w3.org/2000/svg">
<rect width="360" height="220" rx="20" fill="#EAF7FB"/><path d="M0 92C60 62 105 80 160 58C220 34 278 66 360 46V220H0V92Z" fill="#BDE2EE"/><path d="M0 120C80 88 140 110 210 94C280 77 320 104 360 90V220H0V120Z" fill="#8FCDD9" opacity=".5"/><rect y="134" width="360" height="86" fill="#BFE6EC"/><path d="M55 136C72 102 94 89 124 92C98 122 86 166 89 220H48C45 184 47 158 55 136Z" fill="#178B78" opacity=".65"/><path d="M304 122C278 92 249 82 212 88C248 123 264 171 260 220H327C330 180 324 148 304 122Z" fill="#0F9F8F" opacity=".55"/><rect x="158" y="58" width="8" height="72" fill="#6DB3C2"/><path d="M130 130H188L178 94H140L130 130Z" fill="#7BBFCE"/><path d="M92 154C133 143 174 144 215 154" stroke="#76B8C9" stroke-width="6" stroke-linecap="round"/><circle cx="78" cy="54" r="22" fill="white" opacity=".9"/></svg>
